<?xml version="1.0" encoding="utf-8"?>
<!-- Generator: Adobe Illustrator 20.1.0, SVG Export Plug-In . SVG Version: 6.00 Build 0)  -->
<svg version="1.1" id="Слой_1" xmlns="http://www.w3.org/2000/svg" xmlns:xlink="http://www.w3.org/1999/xlink" x="0px" y="0px"
	 width="180" height="63.5" viewBox="0 0 180 63.5" style="enable-background:new 0 0 180 63.5;" xml:space="preserve">
<path d="M28.6,16.2c-4-2.2-7.6-3.3-11.6-3.3C8.8,12.9,2.7,19,2.7,27.3c0,7.3,4.8,14.3,15.1,14.3c3.8,0,6.4-0.7,8.9-2v-8.8h-6.9v-2.1
	h9.4v12.4c-3.9,1.9-7.8,2.8-11.6,2.8C7.6,43.9,0,36.8,0,27.2c0-9.5,7.4-16.6,17.5-16.6c3.7,0,6.6,0.7,11.2,2.8
	C28.6,13.3,28.6,16.2,28.6,16.2z M51.7,43.5c0,3.3-0.5,5.8-2,7.3c-2,2-3.3,2.4-6.4,2.1l-0.2-2.4c3.8,0.9,6.1-1.4,6.1-6.3V11h2.5
	L51.7,43.5L51.7,43.5z M68.1,43.9c-6.3,0-10.9-4.8-10.9-11.1c0-6.4,4.7-11.1,10.9-11.1c6.3,0,10.9,4.8,10.9,11.1
	C79,39.2,74.4,43.9,68.1,43.9L68.1,43.9z M68.1,23.9c-4.9,0-8.5,3.8-8.5,8.9c0,5.1,3.6,8.9,8.5,8.9c4.8,0,8.4-3.8,8.4-8.9
	S72.9,23.9,68.1,23.9L68.1,23.9z M86.3,25.8L86.3,25.8c2.1-3,4.1-4.1,7.2-4.1c4.6,0,8,3,8,8.7v13.1h-2.3V31.3c0-4.6-1.7-7.4-5.8-7.4
	c-3.2,0-5.1,1.5-7,4.6v15H84V11h2.3V25.8z M109.7,25.8L109.7,25.8c2.1-3,4.1-4.1,7.2-4.1c4.6,0,8,3,8,8.8v13h-2.3V31.3
	c0-4.8-2.1-7.4-5.8-7.4c-3.1,0-5.1,1.5-7,4.6v15h-2.3V22.1h2.3L109.7,25.8L109.7,25.8z M142.6,26c-2.4-1.6-4-2.2-5.9-2.2
	c-2.6,0-4.6,1.6-4.6,3.6c0,5.1,11.1,3.2,11.1,10.6c0,3.3-3.1,5.9-7,5.9c-2.2,0-4.3-0.6-6.4-2v-2.2c2.8,1.4,4.7,2,6.7,2
	c2.6,0,4.5-1.5,4.5-3.7c0-5.1-11.1-3.6-11.1-10.4c0-3.3,3.1-5.9,6.9-5.9c1.9,0,3.6,0.6,5.7,1.8L142.6,26L142.6,26z M61.9,52.5h-0.7
	l-0.7-1.5h-2.1l-0.6,1.5h-0.7l2.1-5h0.5L61.9,52.5L61.9,52.5z M58.7,50.4h1.5l-0.8-1.8C59.4,48.6,58.7,50.4,58.7,50.4z M74.1,52.5
	h-0.6l-3.3-3.8v3.8h-0.7v-4.9h0.6l3.3,3.8v-3.8h0.7L74.1,52.5L74.1,52.5z M82.3,47.6h1.9c1.8,0,2.6,1.3,2.6,2.5c0,1.3-1,2.5-2.6,2.5
	h-1.9C82.3,52.5,82.3,47.6,82.3,47.6z M83,51.9h1.1c1.6,0,2-1.2,2-1.8c0-1-0.6-1.8-2-1.8H83L83,51.9L83,51.9z M106.3,48.7
	c-0.4-0.4-0.8-0.5-1.2-0.5c-0.5,0-0.8,0.2-0.8,0.6c0,1,2.1,0.9,2.1,2.5c0,0.8-0.6,1.3-1.4,1.3c-0.5,0-1-0.1-1.4-0.5v-0.9
	c0.4,0.5,0.8,0.7,1.3,0.7c0.6,0,0.8-0.3,0.8-0.6c0-1-2.1-1.1-2.1-2.5c0-0.8,0.6-1.3,1.5-1.3c0.4,0,0.8,0.1,1.1,0.3L106.3,48.7
	L106.3,48.7z M116.8,47.5c1.6,0,2.7,1.2,2.7,2.5c0,1.3-1,2.5-2.7,2.5c-1.6,0-2.6-1.2-2.6-2.5C114.2,48.7,115.2,47.5,116.8,47.5
	L116.8,47.5z M116.8,51.9c1.1,0,1.9-0.8,1.9-1.9c0-1.1-0.8-1.9-1.9-1.9c-1.1,0-1.9,0.8-1.9,1.9C114.9,51.1,115.7,51.9,116.8,51.9
	L116.8,51.9z M132,52.5h-0.6l-3.3-3.8v3.8h-0.7v-4.9h0.6l3.3,3.8v-3.8h0.7L132,52.5L132,52.5z M142.6,48.7c-0.4-0.4-0.8-0.5-1.2-0.5
	c-0.5,0-0.8,0.2-0.8,0.6c0,1,2.1,0.9,2.1,2.5c0,0.8-0.6,1.3-1.4,1.3c-0.5,0-1-0.1-1.4-0.5v-0.9c0.4,0.5,0.8,0.7,1.3,0.7
	c0.6,0,0.8-0.3,0.8-0.6c0-1-2.1-1.1-2.1-2.5c0-0.8,0.6-1.3,1.5-1.3c0.4,0,0.8,0.1,1.1,0.3L142.6,48.7L142.6,48.7z M160.4,0h1.6v63.5
	h-1.6V0z M175.4,7.8V7.1l1.3-0.6V4.6L175.4,4V3.3l4.6,2v0.5L175.4,7.8L175.4,7.8z M177.3,4.8v1.4l1.6-0.7L177.3,4.8L177.3,4.8z
	 M179.9,9.8c0,0.9-0.5,1.5-1.3,1.5c-0.5,0-0.9-0.3-1.1-0.8c-0.3,0.4-0.7,0.7-1.3,1c-0.3,0.2-0.5,0.3-0.9,0.6v-0.8l0.9-0.6
	c0.9-0.6,1-0.9,1-1.2V9.3h-2V8.7h4.6L179.9,9.8L179.9,9.8z M177.9,9.3v0.4c0,0.7,0.4,0.9,0.7,0.9c0.4,0,0.7-0.3,0.7-0.9V9.3
	L177.9,9.3L177.9,9.3z M178.9,16.9c0.3-0.6,0.5-1,0.5-1.6c0-1-0.7-1.8-1.7-1.8c-1,0-1.7,0.8-1.7,1.8c0,0.5,0.2,1.1,0.5,1.6h-0.7
	c-0.2-0.4-0.4-0.9-0.4-1.6c0-1.7,1.3-2.5,2.3-2.5c1.4,0,2.4,1,2.4,2.5c0,0.5-0.1,0.9-0.4,1.6H178.9L178.9,16.9z M175.4,22v-0.7h2
	v-2.6h-2v-0.7h4.6v0.7h-2v2.6h2V22L175.4,22L175.4,22z M175.4,24v-0.7h4.6V24L175.4,24L175.4,24z M179.4,28.7v-1.6h-4v-0.7h4v-1.6
	h0.6v3.8L179.4,28.7L179.4,28.7z M179.4,32.3v-1.9H178v1.9h-0.6v-1.9H176v2h-0.6v-2.6h4.6v2.6L179.4,32.3L179.4,32.3z M178.9,37.2
	c0.3-0.6,0.5-1,0.5-1.6c0-1-0.7-1.8-1.7-1.8c-1,0-1.7,0.8-1.7,1.8c0,0.5,0.2,1.1,0.5,1.6h-0.7c-0.2-0.4-0.4-0.9-0.4-1.7
	c0-1.7,1.3-2.5,2.3-2.5c1.4,0,2.4,1,2.4,2.5c0,0.5-0.1,0.9-0.4,1.6L178.9,37.2L178.9,37.2z M179.4,41.9v-1.6h-4v-0.7h4V38h0.6v3.8
	L179.4,41.9L179.4,41.9z M177.2,46.6c-1.1,0-1.9-0.7-1.9-2c0-1,0.5-1.9,1.8-1.9h2.8v0.7h-2.7c-0.5,0-0.7,0.1-0.9,0.3
	c-0.3,0.3-0.4,0.6-0.4,1c0,0.5,0.2,0.9,0.4,1.1c0.2,0.2,0.6,0.3,1,0.3h2.7v0.7L177.2,46.6L177.2,46.6z M179.9,49
	c0,0.9-0.5,1.5-1.3,1.5c-0.5,0-0.9-0.3-1.1-0.8c-0.3,0.4-0.7,0.7-1.3,1c-0.3,0.2-0.5,0.3-0.9,0.6v-0.8l0.9-0.6c0.9-0.6,1-0.9,1-1.2
	v-0.3h-2v-0.7h4.6L179.9,49L179.9,49z M177.9,48.5V49c0,0.7,0.4,0.9,0.7,0.9c0.4,0,0.7-0.3,0.7-0.9v-0.4L177.9,48.5L177.9,48.5z
	 M175.4,56.2v-0.7l1.3-0.6V53l-1.3-0.6v-0.7l4.6,2v0.5L175.4,56.2z M177.3,53.2v1.4l1.6-0.7L177.3,53.2L177.3,53.2z M176,57.7v2.1
	h-0.6V57h4.6v0.7L176,57.7L176,57.7z M167.4,4.2V3.5h4.6v0.7H167.4z M171.9,7.3c0,0.9-0.5,1.5-1.3,1.5c-0.5,0-0.9-0.3-1.1-0.8
	c-0.3,0.4-0.7,0.7-1.3,1c-0.3,0.2-0.5,0.3-0.9,0.6V8.9l0.9-0.6c0.9-0.6,1-0.9,1-1.2V6.8h-2V6.1h4.6L171.9,7.3L171.9,7.3z M169.9,6.8
	v0.4c0,0.7,0.4,0.9,0.7,0.9c0.4,0,0.7-0.3,0.7-0.9V6.8L169.9,6.8L169.9,6.8z M172,12.9c0,1.5-1.1,2.5-2.3,2.5
	c-1.2,0-2.3-0.9-2.3-2.5c0-1.5,1.1-2.4,2.3-2.4C170.9,10.5,172,11.5,172,12.9L172,12.9z M167.9,12.9c0,1,0.7,1.8,1.7,1.8
	c1,0,1.7-0.8,1.7-1.8c0-1-0.7-1.8-1.7-1.8C168.6,11.2,167.9,11.9,167.9,12.9z M167.4,21.4v-0.6l3.5-3h-3.5v-0.6h4.6v0.5l-3.5,3.1
	h3.5v0.6L167.4,21.4L167.4,21.4z M167.4,27.6v-0.7h3.6v0l-1.8-1.4v-0.1l1.8-1.4v0h-3.6v-0.7h4.6v0.6l-1.9,1.5l1.9,1.5v0.6
	L167.4,27.6L167.4,27.6z M172,31.8c0,1.5-1.1,2.5-2.3,2.5c-1.2,0-2.3-0.9-2.3-2.5c0-1.5,1.1-2.4,2.3-2.4
	C170.9,29.3,172,30.3,172,31.8L172,31.8z M167.9,31.8c0,1,0.7,1.8,1.7,1.8c1,0,1.7-0.8,1.7-1.8c0-1-0.7-1.8-1.7-1.8
	C168.6,30,167.9,30.7,167.9,31.8z M167.4,40.2v-0.6l3.5-3h-3.5V36h4.6v0.5l-3.5,3.1h3.5v0.6L167.4,40.2L167.4,40.2z M167.7,46.1
	c-0.3-0.6-0.4-1.1-0.4-1.7c0-1.4,1-2.4,2.3-2.4c1.3,0,2.4,1.1,2.4,2.5c0,0.5-0.1,0.9-0.4,1.6h-0.7c0.3-0.5,0.4-1.1,0.4-1.6
	c0-1-0.8-1.8-1.7-1.8c-1,0-1.7,0.8-1.7,1.8c0,0.4,0.1,0.7,0.2,1h0.9v-0.9h0.6v1.5L167.7,46.1L167.7,46.1z M171.3,50.6v-1.9h-1.4v1.9
	h-0.6v-1.9h-1.4v2h-0.6V48h4.6v2.6L171.3,50.6L171.3,50.6z M171.9,53.5c0,0.9-0.5,1.5-1.3,1.5c-0.5,0-0.9-0.3-1.1-0.8
	c-0.3,0.4-0.7,0.7-1.3,1c-0.3,0.2-0.5,0.3-0.9,0.6v-0.8l0.9-0.6c0.9-0.6,1-0.9,1-1.2V53h-2v-0.7h4.6
	C171.9,52.3,171.9,53.5,171.9,53.5z M169.9,53v0.4c0,0.7,0.4,0.9,0.7,0.9c0.4,0,0.7-0.3,0.7-0.9V53L169.9,53L169.9,53z M171.9,59.4
	v0.8l-2.2-1.7h-2.4v-0.7h2.4l2.1-1.7v0.8l-1.6,1.2L171.9,59.4L171.9,59.4z"/>
</svg>
