<?xml version="1.0" encoding="UTF-8"?>
<svg width="170px" height="89px" viewBox="0 0 170 89" version="1.1" xmlns="http://www.w3.org/2000/svg" xmlns:xlink="http://www.w3.org/1999/xlink">
    <!-- Generator: Sketch 63.1 (92452) - https://sketch.com -->
    <title>logo</title>
    <desc>Created with Sketch.</desc>
    <g id="Symbols" stroke="none" stroke-width="1" fill="none" fill-rule="evenodd">
        <g id="Header/Desktop-PO" transform="translate(-121.000000, -15.000000)">
            <g id="logo">
                <g transform="translate(121.000000, 0.000000)">
                    <g transform="translate(0.000000, 15.000000)">
                        <path d="M103.333063,48.7872784 C105.666371,48.7872784 107.618944,49.567308 109.190783,51.127367 C110.762622,52.6874261 111.548542,54.6077679 111.548542,56.8883924 C111.548542,59.1480295 110.764369,61.0648734 109.196023,62.638924 C107.627677,64.2129747 105.715272,65 103.45881,65 C101.174404,65 99.2462809,64.2164726 97.6744418,62.6494177 C96.1026027,61.0823629 95.3166831,59.1865063 95.3166831,56.9618481 C95.3166831,55.4787426 95.6747131,54.1040717 96.3907732,52.8378354 C97.1068332,51.5715991 98.08312,50.5799472 99.3196334,49.8628797 C100.556147,49.1458122 101.893957,48.7872784 103.333063,48.7872784 Z M114.98563,49.1755443 L125.234021,60.9914177 L125.234021,49.1755443 L126.753466,49.1755443 L126.753466,64.6117342 L126.407661,64.6117342 L116.243101,52.9427721 L116.243101,64.6117342 L114.650304,64.6117342 L114.650304,49.1755443 L114.98563,49.1755443 Z M132.066282,49.1755443 L132.066282,63.1216329 L137.986876,63.1216329 L137.986876,64.6117342 L130.515401,64.6117342 L130.515401,49.1755443 L132.066282,49.1755443 Z M141.748811,49.1755443 L141.748811,64.6117342 L140.208409,64.6117342 L140.208409,49.1755443 L141.748811,49.1755443 Z M145.626014,49.1755443 L155.874406,60.9914177 L155.874406,49.1755443 L157.39385,49.1755443 L157.39385,64.6117342 L157.048046,64.6117342 L146.883486,52.9427721 L146.883486,64.6117342 L145.290689,64.6117342 L145.290689,49.1755443 L145.626014,49.1755443 Z M170,49.1755443 L170,50.6971265 L162.706666,50.6971265 L162.706666,55.5242152 L169.937126,55.5242152 L169.937126,57.0353038 L162.706666,57.0353038 L162.706666,63.0901519 L169.937126,63.0901519 L169.937126,64.6117342 L161.166264,64.6117342 L161.166264,49.1755443 L170,49.1755443 Z M103.406415,50.298367 C102.267705,50.298367 101.188376,50.5956877 100.168427,51.1903291 C99.1484776,51.7849704 98.3520791,52.5859873 97.7792311,53.5933797 C97.206383,54.6007721 96.919959,55.7235949 96.919959,56.9618481 C96.919959,58.7947426 97.5539341,60.3425591 98.8218844,61.6052975 C100.089835,62.8680359 101.618012,63.4994051 103.406415,63.4994051 C104.601013,63.4994051 105.70654,63.2090802 106.722996,62.6284304 C107.739452,62.0477806 108.532357,61.2537595 109.101712,60.2463671 C109.671067,59.2389747 109.955745,58.1196498 109.955745,56.8883924 C109.955745,55.6641308 109.671067,54.5570485 109.101712,53.5671455 C108.532357,52.5772426 107.730719,51.7849704 106.696798,51.1903291 C105.662878,50.5956877 104.566083,50.298367 103.406415,50.298367 Z M89.2669893,2.84217094e-14 C90.8238639,2.84217094e-14 92.2796915,0.386018528 93.6344718,1.15805559 C94.9892522,1.93009264 96.4226248,3.35049092 97.9345896,5.41925041 L97.9345896,5.41925041 L95.2399988,7.46552338 L95.009178,7.16292163 C93.8658189,5.68285211 92.8836353,4.69687107 92.0626272,4.20497853 C91.1868852,3.68029315 90.232551,3.41795046 89.1996245,3.41795046 C87.867299,3.41795046 86.7782353,3.82270776 85.9324332,4.63222234 C85.0866311,5.44173692 84.66373,6.43863914 84.66373,7.622929 C84.66373,8.34249752 84.8134295,9.03957952 85.1128285,9.714175 C85.4122274,10.3887705 85.9586306,11.12333 86.7520379,11.9178536 C87.1861664,12.3376019 88.6083115,13.4394412 91.0184733,15.2233715 C93.8777335,17.337104 95.8387968,19.2184759 96.9016632,20.867487 C97.9645295,22.5164982 98.4959627,24.1730049 98.4959627,25.8370071 C98.4959627,28.2355689 97.5865383,30.3193194 95.7676895,32.0882586 C93.9488408,33.8571979 91.7370308,34.7416676 89.1322597,34.7416676 C87.1262866,34.7416676 85.3074378,34.2057389 83.6757134,33.1338816 C82.043989,32.0620244 80.5395091,30.2668508 79.1622738,27.748361 L79.1622738,27.748361 L81.9691392,26.0618723 L82.1552914,26.3980501 C84.0881545,29.8167472 86.3090209,31.5260957 88.8178908,31.5260957 C89.925667,31.5260957 90.9660785,31.2675008 91.9391251,30.7503109 C92.9121718,30.233121 93.6531843,29.5397868 94.1621625,28.6703082 C94.6711408,27.8008295 94.9256299,26.8788824 94.9256299,25.9044667 C94.9256299,24.7951319 94.5513812,23.7082836 93.8028838,22.6439218 C92.7699573,21.1748028 90.8837437,19.4058635 88.1442431,17.337104 C85.3897725,15.2533535 83.6757134,13.7467569 83.0020657,12.8173142 C81.8344097,11.2582491 81.2505817,9.5717604 81.2505817,7.75784809 C81.2505817,6.31871106 81.5948905,5.00699761 82.2835081,3.82270776 C82.9721258,2.6384179 83.94143,1.70522748 85.1914207,1.02313649 C86.4414114,0.341045496 87.7999343,2.84217094e-14 89.2669893,2.84217094e-14 Z M151.835075,2.84217094e-14 C154.918884,2.84217094e-14 157.703295,0.61088369 160.188306,1.83265107 C162.673318,3.05441845 164.709231,4.76714144 166.296045,6.97082003 L166.296045,6.97082003 L163.691274,8.97211997 L163.400009,8.60339107 C162.02284,6.91087264 160.394642,5.613384 158.515414,4.71092515 C156.501956,3.74400495 154.290146,3.26054485 151.879985,3.26054485 C149.245274,3.26054485 146.805172,3.89391506 144.55968,5.16065547 C142.314187,6.42739588 140.573931,8.12887561 139.33891,10.2650947 C138.103889,12.4013137 137.486379,14.8036232 137.486379,17.4720231 C137.486379,21.504605 138.867357,24.8700869 141.629312,27.5684689 C144.391268,30.2668508 147.875523,31.6160418 152.082079,31.6160418 C156.707793,31.6160418 160.577525,29.8021295 163.691274,26.1743049 L163.691274,26.1743049 L166.296045,28.1531183 L166.001218,28.5185436 C164.406219,30.4411278 162.449869,31.9420963 160.132169,33.0214491 C157.669612,34.1682614 154.918884,34.7416676 151.879985,34.7416676 C146.101584,34.7416676 141.543235,32.8153227 138.204936,28.9626329 C135.405556,25.7095835 134.005866,21.7819387 134.005866,17.1796984 C134.005866,12.3376019 135.701212,8.26379471 139.091906,4.95827683 C142.482599,1.65275894 146.730322,2.84217094e-14 151.835075,2.84217094e-14 Z M7.00912492,0.83273291 C10.5456646,0.844929738 12.9472784,1.00958692 14.2139664,1.32670446 C16.10018,1.79142579 17.6420847,2.74710273 18.8396806,4.19373527 C20.0372765,5.64036782 20.6360745,7.45802788 20.6360745,9.64671546 C20.6360745,11.850394 20.0522465,13.6680541 18.8845904,15.0996956 C17.7169344,16.5313372 16.1076649,17.4945096 14.0567819,17.989213 C12.6152313,18.3356719 9.96598161,18.5153173 6.10903282,18.5281491 L6.10903282,18.5281491 L3.30087372,18.5288894 L3.30087372,33.9096665 L0,33.9096665 L0,0.8320011 Z M30.5864952,0.8320011 L30.5864952,30.7165811 L43.2735269,30.7165811 L43.2735269,33.9096665 L27.2631666,33.9096665 L27.2631666,0.8320011 L30.5864952,0.8320011 Z M62.0262776,0.8320011 L77.4303549,33.9096665 L73.882477,33.9096665 L68.6953898,23.0261926 L54.4589684,23.0261926 L49.2943361,33.9096665 L45.6117287,33.9096665 L61.2179003,0.8320011 L62.0262776,0.8320011 Z M120.347493,0.8320011 L120.347493,4.04757292 L112.982278,4.04757292 L112.982278,33.9096665 L109.61404,33.9096665 L109.61404,4.04757292 L102.22637,4.04757292 L102.22637,0.8320011 L120.347493,0.8320011 Z M127.940147,0.8320011 L127.940147,33.9096665 L124.639273,33.9096665 L124.639273,0.8320011 L127.940147,0.8320011 Z M61.622089,7.84779416 L55.9409934,19.8331073 L67.2358198,19.8331073 L61.622089,7.84779416 Z M9.13915376,4.04757292 L3.30087372,4.04757292 L3.30087372,15.290831 L8.8921496,15.3582906 C11.1526119,15.3582906 12.8067912,15.1521642 13.8546876,14.7399114 C14.9025841,14.3276586 15.7259312,13.6605586 16.3247292,12.7386114 C16.9235271,11.8166643 17.2229261,10.7860323 17.2229261,9.64671546 C17.2229261,8.53738066 16.9235271,7.52173967 16.3247292,6.59979251 C15.7259312,5.67784534 14.9362664,5.02198862 13.9557348,4.63222234 C12.9752031,4.24245606 11.3696761,4.04757292 9.13915376,4.04757292 L9.13915376,4.04757292 Z" id="Combined-Shape" fill="#000000" fill-rule="nonzero"></path>
                        <path d="M42.4273891,80.2161005 C44.3356146,78.1969711 47.532525,78.2146311 49.5257855,80.264175 C52.5910941,83.4125648 50.6109938,89 46.0312526,89 C43.3587246,89 40.9949546,86.8131004 41.0000081,83.6558806 C41.0020408,82.1528164 41.6985178,80.9784248 42.4273891,80.2161005 Z M46.4709434,64.3142857 C48.8319377,64.3194946 51.058919,66.5854424 50.9988102,68.9678059 C50.9278622,71.6474451 48.8792364,73.5755796 46.5093736,73.5714286 C45.3919413,73.5703824 44.0685626,72.9779098 43.3285348,72.1390934 C41.5321689,70.1080558 41.5617306,67.3889184 43.3915997,65.5896727 C44.0636357,64.9296374 45.2323082,64.3111792 46.4709434,64.3142857 Z M43.2546114,54.1076272 C47.4080463,50.4968283 52.2873797,56.5724839 48.8207857,60.0676074 C47.2642003,61.6221968 44.808339,61.6157104 43.2269853,60.0470669 C42.3982036,59.2340967 42.0000073,58.2297757 42.0000073,56.9314016 C42.0009599,56.4168087 42.2248262,55.6027574 42.3943931,55.2503261 C42.5944438,54.8416788 42.9545352,54.3681669 43.2546114,54.1076272 Z" id="Combined-Shape" fill="#6A737B"></path>
                        <path d="M28.0026823,76.9578666 C28.110895,74.0077604 31.417286,71.752213 34.0537417,73.183793 C34.790572,73.5801061 35.4221409,74.3808204 35.7448116,75.2047877 C36.6724899,77.5300942 34.9981438,80.8077655 31.9032595,80.988735 C30.4659976,81.0726482 29.9741216,80.6854341 29.0956309,79.9049399 C28.467997,79.3498994 27.9584134,78.170059 28.0026823,76.9578666 Z M33.5100357,59.3376933 C33.8980639,59.2717207 34.6221945,59.4366522 34.898818,59.5448885 C35.2679641,59.6871418 35.6276692,59.9046452 35.9024045,60.1675047 C36.1695869,60.4179944 36.4603721,60.7344566 36.6255909,61.1003983 C36.9730226,61.8456823 37.0088986,62.0920487 36.9985135,62.8569183 C36.9720784,65.4762361 33.6516518,67.967732 30.9732184,65.5958114 C30.1159687,64.8371267 29.9667997,63.8712468 30.0055081,62.6693088 C30.0338313,61.8034186 30.7749558,60.7447648 31.2300157,60.3293437 C31.8908911,59.7160048 32.4535792,59.5015939 33.5100357,59.3376933 Z M30.0166455,52.1504444 C30.4379877,48.8126301 34.3796088,48.2073815 36.2064355,49.9547078 C37.3865979,51.0883647 37.2481713,53.1935772 35.8063119,54.3051294 C35.1525747,54.8135382 34.3765776,55.1966868 33.2641129,55.1935484 C31.3999009,55.188266 29.819615,53.7167225 30.0166455,52.1504444 Z" id="Combined-Shape" fill="#00A4E4"></path>
                        <path d="M57.9013352,73.1211138 C58.7548395,72.6752905 59.2117561,72.7455229 60.1265783,72.7465408 C61.8988608,72.7495944 64.9617843,75.5263209 63.7057582,78.7732995 C63.2290616,79.9855727 62.140176,80.9057196 60.865359,80.9790056 C60.4203104,81.0034343 60.4885511,81.0075058 60.1186663,80.9861307 C57.8983682,80.8538087 56.0885038,78.8771214 56.0034501,76.6714152 C55.9609232,75.577214 56.3139951,74.6550313 56.9271732,73.9598318 C57.2733221,73.5710087 57.4246387,73.3735435 57.9013352,73.1211138 Z M56.377806,61.0145475 C57.2581415,59.1496774 59.9781522,58.6723038 61.7407042,60.3649044 C62.6445528,61.223139 62.9295332,62.0595805 62.9953703,63.2831096 C63.1458549,66.0809337 59.5944163,67.7859875 57.2186392,65.4499704 C56.3984977,64.6415487 56.0542639,63.7303879 56.0006538,62.4093085 C55.9856053,61.9786345 56.233905,61.3238025 56.377806,61.0145475 Z M55.0023039,52.0273633 C54.9041572,49.2930454 57.9639051,48.3973206 59.9662997,49.3957133 C60.2789525,49.5486675 60.6877284,49.8116229 60.9265183,50.0400066 C61.1976864,50.294581 61.4405235,50.6067752 61.6297341,50.9577317 C62.2793235,52.1572696 62.0536873,53.491952 61.1137052,54.3583431 C58.9747147,56.3037946 55.0943796,54.5710123 55.0023039,52.0273633 Z" id="Combined-Shape" fill="#FFDD00"></path>
                        <path d="M71.1685031,70.4179973 C70.1770721,67.2572617 73.7935953,65.8978056 75.9346745,68.0331227 C77.7443404,69.8246917 77.2200709,73.0038771 74.5781272,72.9999976 C72.9641261,72.9980508 71.6094512,71.8444552 71.1685031,70.4179973 Z M69.0076973,57.2195082 C68.7960405,54.6104356 73.0070037,54.1989723 74.5349644,56.53405 C76.0951777,58.9105564 73.4283015,60.7739107 70.9902164,59.6779307 C70.0377606,59.2476362 69.1064705,58.4388331 69.0076973,57.2195082 Z" id="Combined-Shape" fill="#25873B"></path>
                        <path d="M19.9188422,67.0003453 C20.932465,67.0022877 22.4612993,68.354185 21.8667526,70.4169938 C20.9016643,73.7879964 15.7318147,74.056045 16.0108877,70.0498838 C16.0706224,69.1981496 16.5970342,68.3823495 17.0403775,67.9559969 C17.9306328,67.0922085 18.5563839,67.0072209 19.5158429,67.0005137 Z M18.4557362,56.4744288 C19.9600808,54.2253565 24.1463883,54.5853581 23.996054,57.30787 C23.9309092,58.4919377 22.8905963,59.3497539 22.0236688,59.710693 C19.4459377,60.7728851 16.9493871,58.7328762 18.4557362,56.4744288 Z" id="Combined-Shape" fill="#EE0000"></path>
                        <path d="M5.10880052,61.3739511 C6.91171226,59.8745393 10.1661888,61.1585239 8.57408521,63.6683468 C8.40744638,63.9219027 8.18057664,64.106827 7.94366841,64.3108157 C7.12954736,65.0219163 6.52924601,65.0018987 5.5936593,64.9999922 C4.73235737,64.9980858 3.91221322,64.1754587 4.00757882,63.3232819 C4.0216327,63.1917378 4.03669043,63.0611469 4.0507443,62.9296028 C4.13105218,62.2165958 4.6811611,61.7323611 5.10880052,61.3739511 Z M8.98224089,49.0000256 C12.2416594,49.0110622 11.3141295,53.2766884 7.90338862,53.2667958 C4.74739191,53.2568688 5.80011658,48.9879393 8.98224089,49.0000256 Z" id="Combined-Shape" fill="#511378"></path>
                        <path d="M84.8484356,61.75 C87.2630436,61.7557386 88.8413928,64.2744314 87.520984,65.5447619 C87.0173862,66.0462081 86.4574919,65.9994065 85.7921697,65.9984513 C84.5311281,65.9955859 83.1390692,64.7118835 83.0162405,63.694664 C82.8749874,62.539905 83.6692799,61.7471423 84.8484356,61.75 Z M80.0142508,50.9319803 C79.8037734,49.046149 81.9666482,48.4420252 83.7326853,49.5614634 C84.5658251,50.0844527 85.1128472,51.0898639 84.9802026,51.8639319 C84.5285531,54.3451157 80.2620003,53.1609891 80.0142508,50.9319803 Z" id="Combined-Shape" fill="#F06B00"></path>
                    </g>
                </g>
            </g>
        </g>
    </g>
</svg>